# xmcd
#
# Track frame offsets: 
#        150
#        20234
#        31584
#        43304
#        59083
#        72840
#        87120
#        98796
#        117509
#        130465
#        140806
#        154471
#        165535
#        178582
#        202532
#        215401
#        226703
#        243684
#        259644
#        278855
#
# Disc length: 3933 seconds
#
# Revision: 0
# Processed by: cddbd v1.5.2PL0 Copyright (c) Steve Scherf et al.
# Submitted via: ExactAudioCopyFreeDBPlugin 1.0
#
DISCID=260f5b14
DTITLE=Various Artist - 100 Country Classics [CD4)
DYEAR=2010
DGENRE=Country
TTITLE0=Lee Marvin - Wand'rin Star
TTITLE1=Patsy Cline - Walkin' After Midnight
TTITLE2=Wanda Jackson - Right Or Wrong
TTITLE3=The Band - The Night They Drove Old Dixie Down
TTITLE4=Glenn Campbell - Wichita Lineman
TTITLE5=Eddie Rabbitt - I Love A Rainey Night
TTITLE6=Marvin Rainwater - Whole Lotta Woman
TTITLE7=Jimmy Buffett - Margaritaville
TTITLE8=Ray Stevens - Misty
TTITLE9=Ferlin Husky - Wings Of A Dove
TTITLE10=Willie Nelson - Funny Now Time Slips Away
TTITLE11=Conway Twitty - Hello Darlin'
TTITLE12=Crytel Gayle - Talking In Your Sleep
TTITLE13=The Judds - Love Can Build A Bridge
TTITLE14=Bobbie Gentry - I'll Never Fall In Love Again
TTITLE15=Eva Cassidy - Tennessee Waltz
TTITLE16=Rick Nelson - Garden Party
TTITLE17=Joe South - Games People Play
TTITLE18=Mac Davis - It's Hard To Be Humble
TTITLE19=The Charlie Daniels Band - The Devil Went Down To Georgia
EXTD=
EXTT0=
EXTT1=
EXTT2=
EXTT3=
EXTT4=
EXTT5=
EXTT6=
EXTT7=
EXTT8=
EXTT9=
EXTT10=
EXTT11=
EXTT12=
EXTT13=
EXTT14=
EXTT15=
EXTT16=
EXTT17=
EXTT18=
EXTT19=
PLAYORDER=
